<svg xmlns="http://www.w3.org/2000/svg" width="14.082" height="11.065" viewBox="0 0 14.082 11.065"><defs><style>.a{fill:#fff;}</style></defs><g transform="translate(0 -54.803)"><g transform="translate(0 54.804)"><path class="a" d="M8.31,62.312a4.99,4.99,0,0,0,2.016-1.466,3.13,3.13,0,0,0,0-4.039A4.99,4.99,0,0,0,8.31,55.342,7.078,7.078,0,0,0,5.532,54.8a7.08,7.08,0,0,0-2.778.538A4.99,4.99,0,0,0,.739,56.808,3.174,3.174,0,0,0,0,58.827a3.088,3.088,0,0,0,.558,1.76A4.592,4.592,0,0,0,2.09,61.979q-.079.189-.161.346a1.992,1.992,0,0,1-.2.3l-.177.228q-.063.082-.2.232t-.181.2c0-.005-.01.007-.031.035s-.033.042-.035.039-.013.01-.031.039l-.028.043-.02.039a.168.168,0,0,0-.016.047.307.307,0,0,0,0,.051.158.158,0,0,0,.008.051.26.26,0,0,0,.09.165.245.245,0,0,0,.161.063h.024a6.589,6.589,0,0,0,.676-.126,6.608,6.608,0,0,0,2.185-1.006,7.891,7.891,0,0,0,1.383.126A7.071,7.071,0,0,0,8.31,62.312Z" transform="translate(0 -54.804)"/><path class="a" d="M184.549,162.547a3.067,3.067,0,0,0-.031-3.572,4.658,4.658,0,0,0-1.6-1.4,4.044,4.044,0,0,1-.346,3.19,5.26,5.26,0,0,1-1.509,1.666,6.958,6.958,0,0,1-2.075,1.014,8.3,8.3,0,0,1-2.428.354q-.236,0-.691-.031a6.6,6.6,0,0,0,3.709,1.037,7.9,7.9,0,0,0,1.383-.126,6.276,6.276,0,0,0,2.86,1.132.237.237,0,0,0,.173-.055.29.29,0,0,0,.1-.173c0-.031,0-.049.008-.051s.006-.02,0-.051l-.016-.047-.02-.039a.379.379,0,0,0-.027-.043.337.337,0,0,0-.031-.039l-.035-.039-.031-.035q-.039-.047-.181-.2t-.2-.232l-.177-.228a1.987,1.987,0,0,1-.2-.3q-.082-.157-.161-.346A4.611,4.611,0,0,0,184.549,162.547Z" transform="translate(-171.026 -154.748)"/></g></g></svg>