<svg xmlns="http://www.w3.org/2000/svg" width="90.321" height="19.985" viewBox="0 0 90.321 19.985"><defs><style>.a{fill:#fff;}</style></defs><g transform="translate(-73.203 -477.629)"><path class="a" d="M86.9,477.629H79.488a6.285,6.285,0,0,0-6.285,6.285v13.7H86.9a6.285,6.285,0,0,0,6.285-6.285v-7.415A6.285,6.285,0,0,0,86.9,477.629Z" transform="translate(0 0)"/><path class="a" d="M194.67,477.629h-7.415a6.285,6.285,0,0,0-6.285,6.285v13.7h13.7a6.285,6.285,0,0,0,6.285-6.285v-7.415A6.285,6.285,0,0,0,194.67,477.629Zm4.327,13.7a4.332,4.332,0,0,1-4.327,4.327H182.928V483.914a4.332,4.332,0,0,1,4.327-4.327h7.415A4.332,4.332,0,0,1,199,483.914Z" transform="translate(-84.322 0)"/><path class="a" d="M302.437,477.629h-7.415a6.285,6.285,0,0,0-6.285,6.285v13.7h13.7a6.285,6.285,0,0,0,6.285-6.285v-7.415A6.285,6.285,0,0,0,302.437,477.629Z" transform="translate(-168.643 0)"/><path class="a" d="M410.205,477.629H402.79a6.285,6.285,0,0,0-6.285,6.285v13.7h13.7a6.285,6.285,0,0,0,6.285-6.285v-7.415A6.285,6.285,0,0,0,410.205,477.629Z" transform="translate(-252.966 0)"/><path class="a" d="M221.265,538.68h-1.891a.323.323,0,0,0-.315.315v1.891a.323.323,0,0,0,.315.315h1.891a.323.323,0,0,0,.315-.315V539a.324.324,0,0,0-.315-.315Z" transform="translate(-113.811 -48.455)"/><path class="a" d="M212.2,494.912a4.27,4.27,0,0,0-1.15-.654,3.533,3.533,0,0,0-1.268-.244,4.023,4.023,0,0,0-3.655,2.1.311.311,0,0,0-.043.22.307.307,0,0,0,.122.2l1.292.985a.376.376,0,0,0,.2.063.306.306,0,0,0,.244-.126,5.378,5.378,0,0,1,.843-.906,1.49,1.49,0,0,1,.851-.228,1.459,1.459,0,0,1,.847.252.712.712,0,0,1,.366.583.884.884,0,0,1-.2.6,1.943,1.943,0,0,1-.662.441,3.326,3.326,0,0,0-1.126.855,1.834,1.834,0,0,0-.512,1.233v.354a.592.592,0,0,0,.083.3.236.236,0,0,0,.2.146h1.891a.274.274,0,0,0,.221-.122.412.412,0,0,0,.095-.256,1.072,1.072,0,0,1,.217-.528,1.544,1.544,0,0,1,.54-.512q.307-.173.48-.28a3.993,3.993,0,0,0,.453-.343,2.27,2.27,0,0,0,.433-.469,2.545,2.545,0,0,0,.276-.6,2.518,2.518,0,0,0,.122-.8,2.579,2.579,0,0,0-.323-1.248A3.263,3.263,0,0,0,212.2,494.912Z" transform="translate(-103.095 -11.595)"/></g></svg>