<svg xmlns="http://www.w3.org/2000/svg" width="14.968" height="20.66" viewBox="0 0 14.968 20.66"><defs><style>.a{opacity:0.379;}.b{fill:#fff;}</style></defs><g class="a"><path class="b" d="M28.107,27.262a4.39,4.39,0,1,0-4.391-4.39A4.391,4.391,0,0,0,28.107,27.262Zm1.862.3H26.244a5.628,5.628,0,0,0-5.622,5.622v4.556l.012.071.314.1a25.589,25.589,0,0,0,7.644,1.233,15.692,15.692,0,0,0,6.674-1.253l.293-.148h.031V33.183A5.627,5.627,0,0,0,29.969,27.561Z" transform="translate(-20.622 -18.481)"/></g></svg>